<svg xmlns="http://www.w3.org/2000/svg" viewBox="0 0 430 764" width="430" height="764">
  <defs>
    <linearGradient id="ivory" x1="0" y1="0" x2="0" y2="1">
      <stop offset="0" stop-color="#fffdf7"/>
      <stop offset="1" stop-color="#edf4ef"/>
    </linearGradient>
    <linearGradient id="jade" x1="0" y1="0" x2="0" y2="1">
      <stop offset="0" stop-color="#dcebe4"/>
      <stop offset="1" stop-color="#b9d0c5"/>
    </linearGradient>
    <filter id="soft" x="-20%" y="-20%" width="140%" height="140%">
      <feDropShadow dx="0" dy="5" stdDeviation="8" flood-color="#24302e" flood-opacity="0.10"/>
    </filter>
    <clipPath id="leftSide"><rect x="74" y="122" width="18" height="502"/></clipPath>
    <clipPath id="rightSide"><rect x="338" y="122" width="18" height="502"/></clipPath>
  </defs>

  <rect width="430" height="764" fill="none"/>

  <!-- Transparent-center overlay: this sits above the video and hides only the video edges. -->
  <g filter="url(#soft)">
    <rect x="74" y="122" width="282" height="18" rx="9" fill="url(#ivory)"/>
    <rect x="74" y="606" width="282" height="18" rx="9" fill="url(#ivory)"/>
    <rect x="74" y="122" width="18" height="502" rx="9" fill="url(#ivory)"/>
    <rect x="338" y="122" width="18" height="502" rx="9" fill="url(#ivory)"/>
  </g>

  <g fill="none" stroke-linecap="round" stroke-linejoin="round">
    <rect x="92" y="140" width="246" height="466" rx="12" stroke="#d6b56e" stroke-width="2.2" opacity="0.82"/>
    <rect x="77" y="125" width="276" height="496" rx="14" stroke="#ffffff" stroke-width="1.2" opacity="0.75"/>

    <g clip-path="url(#leftSide)" stroke="#6f9788" stroke-width="2" opacity="0.9">
      <path d="M78 152 H90 M78 216 H90 M78 280 H90 M78 344 H90 M78 408 H90 M78 472 H90 M78 536 H90 M78 600 H90"/>
      <path d="M82 130 V618 M88 130 V618"/>
      <path d="M76 166 L92 198 M76 230 L92 262 M76 294 L92 326 M76 358 L92 390 M76 422 L92 454 M76 486 L92 518 M76 550 L92 582"/>
      <path d="M92 166 L76 198 M92 230 L76 262 M92 294 L76 326 M92 358 L76 390 M92 422 L76 454 M92 486 L76 518 M92 550 L76 582"/>
    </g>

    <g clip-path="url(#rightSide)" stroke="#6f9788" stroke-width="2" opacity="0.9">
      <path d="M340 152 H352 M340 216 H352 M340 280 H352 M340 344 H352 M340 408 H352 M340 472 H352 M340 536 H352 M340 600 H352"/>
      <path d="M342 130 V618 M348 130 V618"/>
      <path d="M338 166 L354 198 M338 230 L354 262 M338 294 L354 326 M338 358 L354 390 M338 422 L354 454 M338 486 L354 518 M338 550 L354 582"/>
      <path d="M354 166 L338 198 M354 230 L338 262 M354 294 L338 326 M354 358 L338 390 M354 422 L338 454 M354 486 L338 518 M354 550 L338 582"/>
    </g>

    <g stroke="#d6b56e" stroke-width="1.7" opacity="0.72">
      <path d="M100 132 H330"/>
      <path d="M112 124 V138 M160 124 V138 M208 124 V138 M256 124 V138 M304 124 V138"/>
      <path d="M104 124 L120 138 M152 124 L168 138 M200 124 L216 138 M248 124 L264 138 M296 124 L312 138"/>
      <path d="M120 124 L104 138 M168 124 L152 138 M216 124 L200 138 M264 124 L248 138 M312 124 L296 138"/>
    </g>
  </g>
</svg>
